<?xml version="1.0" encoding="utf-8"?>
<!-- Generator: Adobe Illustrator 23.0.1, SVG Export Plug-In . SVG Version: 6.00 Build 0)  -->
<svg version="1.1" id="Camada_1" xmlns="http://www.w3.org/2000/svg" xmlns:xlink="http://www.w3.org/1999/xlink" x="0px" y="0px"
	 viewBox="0 0 356 356" style="enable-background:new 0 0 356 356;" xml:space="preserve">
<style type="text/css">
	.Sombra{fill:none;}
	.Cantos_x0020_arredondados_x0020__x002D__x0020_2_x0020_pontos{fill:#FFFFFF;stroke:#000000;stroke-miterlimit:10;}
	.Reflexo_x0020_X_x0020_em_x0020_tempo_x0020_real{fill:none;}
	.Chanfro_x0020_suave{fill:url(#SVGID_1_);}
	.Anoitecer{fill:#FFFFFF;}
	.Foliage_GS{fill:#FFDD00;}
	.Pompadour_GS{fill-rule:evenodd;clip-rule:evenodd;fill:#51AEE2;}
	.st0{fill:#FFFFFF;}
	.st1{fill:#B2B2B2;}
	.st2{fill:none;stroke:#000000;stroke-width:16;stroke-miterlimit:10;}
</style>
<linearGradient id="SVGID_1_" gradientUnits="userSpaceOnUse" x1="-119.638" y1="-242.945" x2="-118.9309" y2="-242.2379">
	<stop  offset="0" style="stop-color:#E6E6EB"/>
	<stop  offset="0.1738" style="stop-color:#E2E2E6"/>
	<stop  offset="0.352" style="stop-color:#D5D4D8"/>
	<stop  offset="0.5323" style="stop-color:#C0BFC2"/>
	<stop  offset="0.7139" style="stop-color:#A4A2A4"/>
	<stop  offset="0.8949" style="stop-color:#828282"/>
	<stop  offset="1" style="stop-color:#6B6E6E"/>
</linearGradient>
<g>
	<circle cx="178" cy="178" r="178"/>
	<circle class="st0" cx="178" cy="178" r="148.912"/>
</g>
<g>
	<path class="st1" d="M177.992,177.975l-42.5-138.27c3.34-1.03,6.74-1.94,10.18-2.73L177.992,177.975z"/>
	<path class="st1" d="M177.992,177.975l-65.86-128.75c3.11-1.61,6.3-3.1,9.54-4.48L177.992,177.975z"/>
	<path class="st1" d="M177.992,177.975l-87.19-115.33c2.79-2.12,5.67-4.14,8.62-6.05L177.992,177.975z"/>
	<path class="st1" d="M177.992,177.995h-0.01l-105.89-98.44c2.4-2.57,4.88-5.06,7.46-7.46L177.992,177.995z"/>
	<path class="st1" d="M177.982,177.995l-121.39-78.57c1.91-2.95,3.93-5.83,6.06-8.62L177.982,177.995z"/>
	<path class="st1" d="M177.982,177.995l-133.23-56.32c1.38-3.24,2.87-6.42,4.47-9.54L177.982,177.995z"/>
	<path class="st1" d="M177.982,177.995l-141-32.32c0.79-3.44,1.7-6.84,2.73-10.19L177.982,177.995z"/>
	<path class="st1" d="M319.022,145.675l-141,32.32l138.27-42.51C317.322,138.835,318.232,142.235,319.022,145.675z"/>
	<path class="st1" d="M311.252,121.675l-133.23,56.32l128.76-65.86C308.382,115.255,309.872,118.435,311.252,121.675z"/>
	<path class="st1" d="M299.412,99.415l-121.4,78.57l115.34-87.18C295.472,93.595,297.492,96.465,299.412,99.415z"/>
	<path class="st1" d="M283.902,79.555l-105.89,98.43v-0.01l98.44-105.88C279.022,74.495,281.512,76.985,283.902,79.555z"/>
	<path class="st1" d="M265.202,62.645l-87.19,115.33l78.57-121.38C259.532,58.505,262.412,60.525,265.202,62.645z"/>
	<path class="st1" d="M243.862,49.215l-65.85,128.76l56.31-133.23C237.562,46.125,240.742,47.615,243.862,49.215z"/>
	<path class="st1" d="M220.512,39.705l-42.5,138.27l32.32-141C213.772,37.765,217.172,38.675,220.512,39.705z"/>
	<path class="st1" d="M195.852,34.425l-17.85,143.52l7.35-144.42C188.892,33.695,192.392,34.005,195.852,34.425z"/>
	<path class="st1" d="M177.992,177.975l-17.85-143.55c3.46-0.42,6.96-0.73,10.5-0.9L177.992,177.975z"/>
	<polyline class="st2" points="178.052,177.995 178.022,177.995 178.012,177.995 178.002,177.995 177.992,177.995 177.982,177.995 
		177.942,177.995 	"/>
</g>
<path d="M322.66,178c0,2.88-0.08,5.75-0.25,8.59H33.59c-0.17-2.84-0.25-5.71-0.25-8.59c0-2.41,0.06-4.81,0.18-7.19
	c18.71-7.29,40.02-8.65,59.19-14.4c8.9-2.67,17.49-7.15,25.97-10.9c10.9-4.81,17.57-10.22,25.1-19.5
	c5.28-6.51,10.03-13.48,14.12-20.8c1-1.78,2.55-6.68,4.26-7.61c8.78-4.77,18.51,10.26,22,15.52c6.2,9.33,12.7,23.83,24.57,26.99
	c7.95,2.11,16.39,1.03,24.47,3.58c5.81,1.83,11.39,4.52,16.33,8.1c2.15,1.57,4.38,4.72,6.66,5.9c7.21,3.71,19.99,3.3,28.1,4.78
	c13.04,2.38,26.38,4.73,38.26,10.03C322.63,174.32,322.66,176.16,322.66,178z"/>
<g>
	<path d="M82.634,204.777l11.222,33.717c-3.419,0.245-6.822,0.24-10.209-0.016l-1.875-5.682h-9.258l-1.834,5.682
		c-3.146,0.226-6.322,0.226-9.531,0.001l11.124-33.702C75.743,204.52,79.196,204.52,82.634,204.777z M74.63,226.244h4.982
		l-1.748-5.298c-0.327-0.937-0.54-2.273-0.638-4.007H76.98c-0.098,1.734-0.311,3.067-0.637,3.998L74.63,226.244z"/>
	<path d="M105.751,213.817c0,0.707,0.385,1.325,1.156,1.855c0.771,0.53,1.726,0.972,2.866,1.324
		c1.139,0.354,2.376,0.827,3.709,1.421c1.332,0.595,2.569,1.253,3.708,1.975s2.096,1.782,2.866,3.179
		c0.771,1.397,1.156,3.027,1.156,4.889c0,3.275-1.148,5.845-3.444,7.707c-2.296,1.863-5.692,2.794-10.187,2.794
		c-4.399,0-8.349-1.06-11.849-3.179c0.321-2.922,1.075-5.362,2.264-7.321c3.179,1.926,6.245,2.89,9.2,2.89
		c1.38,0,2.456-0.2,3.227-0.602c0.77-0.401,1.156-0.922,1.156-1.565c0-0.706-0.53-1.332-1.589-1.879
		c-1.06-0.546-2.345-1.075-3.854-1.589c-1.51-0.513-3.027-1.156-4.551-1.927c-1.525-0.77-2.818-1.934-3.878-3.492
		c-1.06-1.557-1.589-3.444-1.589-5.659c0-3.147,1.076-5.66,3.227-7.538c2.151-1.879,5.443-2.818,9.874-2.818
		c4.27,0,7.803,0.98,10.596,2.938c-0.225,2.601-0.98,4.945-2.264,7.032c-2.89-1.734-5.459-2.601-7.707-2.601
		C107.116,211.65,105.751,212.372,105.751,213.817z"/>
	<path d="M138.071,204.762c4.078,0,7.217,0.884,9.416,2.649c2.199,1.766,3.299,4.078,3.299,6.936v4.142
		c0,2.858-1.1,5.17-3.299,6.936c-2.2,1.766-5.339,2.649-9.416,2.649h-3.564v10.404c-3.211,0.257-6.423,0.257-9.633,0v-33.717h9.633
		H138.071z M141.106,217.285v-1.734c0-2.087-1.189-3.147-3.564-3.179h-3.035v5.684c0,0.835-0.081,1.558-0.241,2.167l0.241,0.241
		h3.035C139.917,220.433,141.106,219.373,141.106,217.285z"/>
	<path d="M155.892,207.339c2.601-2.039,6.021-3.059,10.259-3.059c4.239,0,7.659,1.02,10.259,3.059
		c2.601,2.04,3.902,4.857,3.902,8.454v11.656c0,3.597-1.301,6.415-3.902,8.454c-2.601,2.04-6.021,3.059-10.259,3.059
		c-4.239,0-7.658-1.019-10.259-3.059c-2.601-2.039-3.902-4.857-3.902-8.454v-11.656C151.99,212.196,153.291,209.378,155.892,207.339
		z M170.679,225.714v-8.188c0-1.894-0.346-3.299-1.036-4.215c-0.691-0.915-1.855-1.389-3.492-1.421
		c-1.638,0.032-2.802,0.506-3.492,1.421c-0.691,0.915-1.036,2.32-1.036,4.215v8.188c0,1.895,0.345,3.299,1.036,4.215
		c0.69,0.915,1.854,1.389,3.492,1.421c1.637-0.032,2.801-0.506,3.492-1.421C170.333,229.014,170.679,227.609,170.679,225.714z"/>
	<path d="M193.558,212.372v4.046c0,0.835-0.08,1.558-0.241,2.167l0.241,0.241h11.945c0.257,2.505,0.257,5.042,0,7.61h-11.945v12.042
		c-3.211,0.257-6.422,0.257-9.633,0v-33.717h9.633h12.909c0.225,2.537,0.225,5.074,0,7.61H193.558z"/>
	<path d="M232.284,230.868c0.225,2.537,0.225,5.074,0,7.61h-15.124h-7.899v-33.717h9.633h12.909c0.225,2.537,0.225,5.074,0,7.61
		h-12.909v2.552c0,0.835-0.08,1.558-0.241,2.168l0.241,0.241h10.982c0.225,2.537,0.225,5.074,0,7.61h-10.982v3.516
		c0,0.835-0.08,1.558-0.241,2.167l0.241,0.241H232.284z"/>
	<path d="M254.777,224.944c1.669,0.418,2.906,1.325,3.708,2.722c0.803,1.397,2.28,5.002,4.431,10.813
		c-3.371,0.224-6.759,0.224-10.163,0c-1.414-3.628-2.521-6.214-3.323-7.755c-0.803-1.541-1.493-2.52-2.071-2.938
		c-0.578-0.417-1.414-0.626-2.504-0.626h-0.145v11.319c-3.211,0.257-6.422,0.257-9.633,0v-33.717h9.633h3.565
		c4.046,0,7.176,0.851,9.392,2.553c2.216,1.702,3.324,3.886,3.324,6.551v4.142c0,1.799-0.547,3.299-1.638,4.504
		c-1.092,1.204-2.617,1.935-4.575,2.191V224.944z M244.71,219.549h3.035c1.188-0.032,2.079-0.296,2.674-0.795
		c0.594-0.497,0.89-1.148,0.89-1.951v-1.734c0-0.771-0.297-1.405-0.89-1.903c-0.594-0.497-1.486-0.763-2.674-0.795h-3.035v4.768
		c0,0.835-0.08,1.558-0.241,2.167L244.71,219.549z"/>
	<path d="M285.699,204.762c3.017-0.289,6.068-0.289,9.152,0v33.717c-2.73,0.257-5.459,0.257-8.188,0l-11.994-16.473l-0.241,0.193
		c0.161,0.611,0.241,1.349,0.241,2.216v14.064c-3.082,0.289-6.133,0.289-9.151,0v-33.717c2.697-0.257,5.41-0.257,8.14,0
		l12.042,16.473l0.241-0.193c-0.161-0.609-0.241-1.349-0.241-2.216V204.762z"/>
</g>
</svg>
